<?xml version="1.0" encoding="iso-8859-1"?>
<!-- Uploaded to: SVG Repo, www.svgrepo.com, Generator: SVG Repo Mixer Tools -->
<svg height="800px" width="800px" version="1.1" id="Capa_1" xmlns="http://www.w3.org/2000/svg" xmlns:xlink="http://www.w3.org/1999/xlink" 
	 viewBox="0 0 369.946 369.946" xml:space="preserve">
<g>
	<g>
		<path style="fill:#010002;" d="M181.452,124.367c-18.282,17.459-54.507,56.864-54.507,80.207
			c0,30.055,24.452,54.507,54.507,54.507s54.507-24.452,54.507-54.507C235.96,181.214,199.741,141.821,181.452,124.367z"/>
		<path style="fill:#010002;" d="M184.973,0C82.981,0,0,82.981,0,184.973c0,101.998,82.981,184.973,184.973,184.973
			c101.998,0,184.973-82.975,184.973-184.973C369.946,82.981,286.971,0,184.973,0z M181.452,271.015
			c-36.637,0-66.441-29.804-66.441-66.441c0-35.634,59.884-90.47,62.431-92.785l4.01-3.646l4.016,3.652
			c2.548,2.315,62.425,57.157,62.425,92.785C247.894,241.211,218.089,271.015,181.452,271.015z"/>
	</g>
</g>
</svg>